<?xml version="1.0" encoding="UTF-8"?>
<svg version="1.1" xmlns="http://www.w3.org/2000/svg" width="1024" height="1024">
<path d="M0 0 C337.92 0 675.84 0 1024 0 C1024 337.92 1024 675.84 1024 1024 C686.08 1024 348.16 1024 0 1024 C0 686.08 0 348.16 0 0 Z " fill="#000000" transform="translate(0,0)"/>
<path d="M0 0 C0.81664124 -0.0065712 1.63328247 -0.0131424 2.47467041 -0.01991272 C5.179485 -0.03963518 7.88424404 -0.05130724 10.58911133 -0.0612793 C11.5141427 -0.06535482 12.43917408 -0.06943035 13.39223671 -0.07362938 C18.29029746 -0.09448768 23.18833023 -0.10878928 28.08642578 -0.11816406 C33.13586883 -0.12921561 38.18486964 -0.16360172 43.23415661 -0.20333576 C47.12476905 -0.2295339 51.01527674 -0.23785884 54.90596962 -0.24144554 C56.76662488 -0.24630484 58.62727567 -0.25790005 60.48784447 -0.27648354 C63.09901893 -0.30093869 65.7090576 -0.29989832 68.3203125 -0.29296875 C69.08164993 -0.30577881 69.84298737 -0.31858887 70.62739563 -0.33178711 C77.04470971 -0.2700572 82.42671376 1.64918428 87.04223633 6.2121582 C87.49727539 6.88118164 87.95231445 7.55020508 88.42114258 8.23950195 C88.89422852 8.91110352 89.36731445 9.58270508 89.85473633 10.2746582 C91.79601396 13.54594611 92.10692447 16.20660082 92.09716797 19.92382812 C92.09705467 21.36498238 92.09705467 21.36498238 92.09693909 22.83525085 C92.0917778 23.8697084 92.08661652 24.90416595 92.08129883 25.9699707 C92.07988388 27.03113602 92.07846893 28.09230133 92.07701111 29.18562317 C92.07140864 32.57861131 92.05885571 35.97153372 92.04614258 39.36450195 C92.0411279 41.66332913 92.03656493 43.96215733 92.0324707 46.26098633 C92.02143841 51.89968067 92.00469787 57.53833662 91.98364258 63.17700195 C92.74099736 63.17548307 93.49835215 63.17396419 94.27865708 63.17239928 C139.14597939 63.08292535 184.01329202 63.01427514 228.88068563 62.97274064 C234.2655907 62.96773769 239.65049559 62.96256041 245.03540039 62.95727539 C246.64348565 62.95570153 246.64348565 62.95570153 248.28405748 62.95409587 C265.65235549 62.93668127 283.02060064 62.90513776 300.38886727 62.86839077 C318.20466845 62.83101072 336.02044192 62.80877232 353.8362807 62.80064797 C364.83338793 62.79515411 375.83034579 62.77778993 386.82740705 62.74533609 C394.36415116 62.72422445 401.90081782 62.71779431 409.43758936 62.72299644 C413.78870773 62.72556345 418.1395647 62.72157396 422.49063683 62.70018005 C426.47320009 62.68074074 430.45532574 62.67971468 434.43790899 62.69340637 C435.87946857 62.69509901 437.32105525 62.69000236 438.76256134 62.67746922 C452.12041325 62.56807259 452.12041325 62.56807259 456.98364258 67.17700195 C460.86450184 71.47741357 462.10909295 74.47606694 462.10669041 80.21573925 C462.10868146 81.26324767 462.1106725 82.3107561 462.11272389 83.3900072 C462.10981105 84.54466221 462.1068982 85.69931723 462.10389709 86.88896179 C462.10517873 88.72427994 462.10517873 88.72427994 462.10648626 90.59667522 C462.10785158 93.99898908 462.10471491 97.40124578 462.0997082 100.80355275 C462.09539868 104.47020094 462.09685048 108.1368473 462.09761047 111.80349731 C462.09813539 118.15826017 462.09499196 124.51301278 462.08937263 130.86777306 C462.08125326 140.05574352 462.07864196 149.24370902 462.07738464 158.43168268 C462.07519481 173.33775871 462.06853659 188.24382928 462.05908203 203.14990234 C462.04990613 217.6316729 462.04282617 232.11344197 462.03857422 246.59521484 C462.03818013 247.9337001 462.03818013 247.9337001 462.03777809 249.29922547 C462.03647307 253.77565086 462.03520936 258.25207627 462.03396618 262.72850168 C462.02359572 299.87800563 462.00597927 337.02750337 461.98364258 374.17700195 C463.27463867 374.15605469 464.56563477 374.13510742 465.89575195 374.11352539 C470.71139317 374.04081549 475.52698638 373.99508971 480.34301758 373.95727539 C482.42252783 373.93723036 484.5019822 373.90998682 486.58129883 373.87524414 C489.58013745 373.82641248 492.5782272 373.80396168 495.57739258 373.78637695 C496.49854858 373.76573181 497.41970459 373.74508667 498.36877441 373.72381592 C505.22713871 373.72146211 510.87167206 375.09096452 515.85864258 380.03637695 C518.69327414 384.80013278 520.13247902 388.63681875 518.98364258 394.17700195 C517.09034343 399.97324739 514.52893971 403.34776872 508.98364258 406.17700195 C504.50389737 407.40162798 500.01880965 407.31972296 495.41027355 407.31122303 C494.11107645 407.31475138 494.11107645 407.31475138 492.78563294 407.318351 C489.86929838 407.3250336 486.95300844 407.324583 484.03666687 407.32417297 C481.93027946 407.32747204 479.82389268 407.33119769 477.71750671 407.33531445 C471.9180432 407.34533735 466.11859004 407.3490517 460.3191191 407.35170376 C454.06882069 407.35560583 447.81853048 407.36518408 441.5682373 407.37391663 C427.18398048 407.39274731 412.79972552 407.40293632 398.41545963 407.41137731 C391.30796374 407.41558432 384.2004687 407.42080618 377.09297353 407.42606184 C352.7650187 407.44394968 328.43706363 407.45894663 304.1091032 407.46638203 C302.58207164 407.46685678 301.05504007 407.46733267 299.52800851 407.46780969 C298.77073912 407.46804606 298.01346972 407.46828244 297.23325277 407.46852598 C293.39655002 407.46972718 289.55984727 407.47094263 285.72314453 407.47216797 C284.96174042 407.47240812 284.20033631 407.47264827 283.41585934 407.4728957 C258.72074522 407.48079134 234.02567909 407.50422985 209.33058593 407.53672391 C183.2233352 407.57101344 157.11611257 407.59073225 131.00883895 407.59402627 C128.14355042 407.59444381 125.27826191 407.59492337 122.4129734 407.59544945 C121.70745539 407.59557264 121.00193738 407.59569583 120.27504004 407.59582276 C108.91709823 407.59815564 97.55921214 407.61382022 86.20129019 407.63429129 C74.78794666 407.65453616 63.37468933 407.65969918 51.9613243 407.65052066 C45.77709116 407.64596443 39.59303914 407.64793917 33.40883064 407.6672821 C27.74929768 407.68483151 22.09007908 407.68398298 16.43054316 407.66838481 C14.38143487 407.66599625 12.33230528 407.67039652 10.28322967 407.68221346 C7.49994793 407.69727238 4.71778873 407.6877014 1.93453503 407.67198658 C1.13715985 407.68220879 0.33978468 407.69243099 -0.48175338 407.70296296 C-6.0795706 407.63388143 -10.32075861 406.26271326 -15.01635742 403.17700195 C-19.88927501 398.17584969 -21.26563956 393.52955441 -21.27083302 386.64392185 C-21.27403949 385.99836821 -21.27724597 385.35281457 -21.28054962 384.68769869 C-21.2888598 382.5216536 -21.28292189 380.35588428 -21.27705383 378.18983459 C-21.28007405 376.62236948 -21.28396288 375.05490584 -21.2886464 373.48744482 C-21.29895179 369.17770187 -21.29673813 364.86804187 -21.29246581 360.55829203 C-21.2900032 355.91131412 -21.29900693 351.26435642 -21.3065033 346.61738586 C-21.3192651 337.51270683 -21.32104216 328.40805726 -21.31870303 319.30337078 C-21.31692144 311.90460527 -21.3186661 304.50584872 -21.32292747 297.10708427 C-21.32352266 296.05485679 -21.32411785 295.00262931 -21.32473108 293.91851614 C-21.3259428 291.7810582 -21.32715694 289.64360025 -21.32837345 287.50614231 C-21.33925461 267.45258231 -21.33708372 247.39903912 -21.33098861 227.34547817 C-21.32581842 208.99135964 -21.33707656 190.63729417 -21.35608683 172.28318615 C-21.3754485 153.44568713 -21.3837242 134.60821324 -21.37996358 115.77070421 C-21.37804906 105.19145394 -21.3805635 94.61224884 -21.39467812 84.03300667 C-21.40657158 75.0272883 -21.40801968 66.0216429 -21.39588795 57.01592357 C-21.38998506 52.41976828 -21.38893867 47.82374661 -21.40089035 43.2276001 C-21.41170111 39.02138848 -21.40870342 34.81542282 -21.39462867 30.60922294 C-21.39196844 29.08639564 -21.39438965 27.56354936 -21.40236453 26.04074062 C-21.41244687 23.97217032 -21.40407001 21.9044589 -21.39108753 19.83592319 C-21.39114255 18.68656208 -21.39119756 17.53720096 -21.39125425 16.35301071 C-20.76853521 11.07752959 -18.61568777 7.19970274 -14.51635742 3.86450195 C-13.92854492 3.37336914 -13.34073242 2.88223633 -12.73510742 2.3762207 C-8.80035251 -0.36916511 -4.58931683 0.01599597 0 0 Z " fill="#DED9CA" transform="translate(231.016357421875,373.822998046875)"/>
<path d="M0 0 C15.84 0 31.68 0 48 0 C48 112.53 48 225.06 48 341 C32.16 341 16.32 341 0 341 C0 228.47 0 115.94 0 0 Z " fill="#000000" transform="translate(242,407)"/>
<path d="M0 0 C111.54 0 223.08 0 338 0 C338 14.52 338 29.04 338 44 C226.46 44 114.92 44 0 44 C0 29.48 0 14.96 0 0 Z " fill="#000000" transform="translate(323,704)"/>
<path d="M0 0 C4.48786943 3.56478939 8.71657998 7.36425907 12.88671875 11.29296875 C13.47710938 11.83050781 14.0675 12.36804688 14.67578125 12.921875 C37.05005227 34.07669523 50.37069422 63.25391513 58.88671875 92.29296875 C59.12970703 93.11571289 59.37269531 93.93845703 59.62304688 94.78613281 C62.83736413 106.21854775 63.33231935 117.73503592 63.51171875 129.54296875 C63.53097412 130.26483368 63.55022949 130.98669861 63.57006836 131.73043823 C63.74590263 139.40689454 63.85970528 145.85114374 58.56787109 151.90136719 C53.93118803 155.73945801 49.64403449 155.71920604 43.80078125 155.60546875 C39.83048056 155.17969924 37.77193152 154.03392088 34.88671875 151.29296875 C30.90603228 146.12883495 29.79811792 142.42698886 29.67578125 136.03125 C28.79421186 101.30721143 18.95960263 69.8914964 -4.11328125 43.29296875 C-5.15935547 42.04773438 -5.15935547 42.04773438 -6.2265625 40.77734375 C-11.63660303 34.51207479 -17.52070279 29.2860074 -24.11328125 24.29296875 C-25.52480469 23.21595703 -25.52480469 23.21595703 -26.96484375 22.1171875 C-53.64485603 2.71040854 -84.84987738 -7.23444624 -117.80834961 -7.20458984 C-123.6756768 -7.28196119 -128.24872453 -8.28203048 -133.11328125 -11.70703125 C-137.1445018 -16.64527643 -137.75597746 -20.7972567 -137.49609375 -27.12109375 C-136.7294155 -32.30008359 -134.19118691 -34.84002017 -130.23828125 -38.01953125 C-93.58586852 -57.81183412 -28.45163439 -21.60836546 0 0 Z " fill="#DDD9CA" transform="translate(780.11328125,289.70703125)"/>
<path d="M0 0 C15.18 0 30.36 0 46 0 C46 66.99 46 133.98 46 203 C30.82 203 15.64 203 0 203 C0 136.01 0 69.02 0 0 Z " fill="#000000" transform="translate(400,469)"/>
<path d="M0 0 C14.52 0 29.04 0 44 0 C44 66.99 44 133.98 44 203 C29.48 203 14.96 203 0 203 C0 136.01 0 69.02 0 0 Z " fill="#000000" transform="translate(323,469)"/>
<path d="M0 0 C13.86 0 27.72 0 42 0 C42 67.32 42 134.64 42 204 C28.14 204 14.28 204 0 204 C0 136.68 0 69.36 0 0 Z " fill="#010101" transform="translate(478,468)"/>
<path d="M0 0 C13.2 0 26.4 0 40 0 C40 67.32 40 134.64 40 204 C26.8 204 13.6 204 0 204 C0 136.68 0 69.36 0 0 Z " fill="#020101" transform="translate(552,468)"/>
<path d="M0 0 C12.21 0 24.42 0 37 0 C37 67.32 37 134.64 37 204 C24.79 204 12.58 204 0 204 C0 136.68 0 69.36 0 0 Z " fill="#000000" transform="translate(624,468)"/>
<path d="M0 0 C9.44102263 4.7444386 18.03766075 10.00403013 26 17 C26.80566406 17.66257812 27.61132812 18.32515625 28.44140625 19.0078125 C48.83172349 36.30288596 62.96652297 63.05341909 65.78515625 89.65625 C67.07128698 109.67312106 67.07128698 109.67312106 62 116 C56.92615877 120.711424 53.60080101 121.35712658 46.828125 121.27734375 C42.49223863 120.85213942 40.45378189 119.6784431 37 117 C33.22327194 112.22939614 32.01511169 108.4467027 31.60546875 102.5078125 C29.70114629 77.60048387 22.14160038 57.88768677 2.71484375 41.125 C-10.32982037 30.91450031 -26.05914528 23.39773881 -42.77734375 22.80859375 C-43.65366455 22.77612549 -44.52998535 22.74365723 -45.43286133 22.71020508 C-47.18608255 22.65471635 -48.94004992 22.6184164 -50.6940918 22.60424805 C-56.57128123 22.45107971 -61.08511862 21.3229015 -66 18 C-70.72958003 12.90660612 -71.35234282 9.55996964 -71.28125 2.76171875 C-70.75919674 -2.36455419 -68.12436465 -4.98532946 -64.4375 -8.3125 C-48.44609898 -19.38346994 -15.6116228 -7.50852805 0 0 Z " fill="#DED9CA" transform="translate(714,324)"/>
<path d="M0 0 C0.47050781 0.40992188 0.94101562 0.81984375 1.42578125 1.2421875 C2.04839844 1.78101563 2.67101562 2.31984375 3.3125 2.875 C4.23482422 3.67550781 4.23482422 3.67550781 5.17578125 4.4921875 C8.60376466 7.32559563 10.81289272 8.28412151 15.1875 8.625 C16.08855469 8.69976562 16.98960937 8.77453125 17.91796875 8.8515625 C18.60503906 8.90054687 19.29210937 8.94953125 20 9 C20 9.33 20 9.66 20 10 C10.24921136 10.62460568 10.24921136 10.62460568 5.5 8.25 C3.29238084 6.26314276 1.52542105 4.54236842 0 2 C0 1.34 0 0.68 0 0 Z " fill="#EDEADD" transform="translate(812,435)"/>
</svg>
